# https://github.com/mikedh/trimesh
v -39.00000000 -24.00000000 -6.00000000
v -6.70710659 -20.70710754 -6.00000000
v -6.92387962 -20.38268280 -6.00000000
v -6.38268328 -20.92387962 -6.00000000
v -7.00000000 -20.00000000 -6.00000000
v -6.92387962 -19.61731720 -6.00000000
v -6.00000000 -21.00000000 -6.00000000
v -5.61731672 -20.92387962 -6.00000000
v -5.29289341 -20.70710754 -6.00000000
v -5.07612038 -20.38268280 -6.00000000
v -5.00000000 -20.00000000 -6.00000000
v -5.07612038 -19.61731720 -6.00000000
v -6.70710659 -19.29289246 -6.00000000
v -6.38268328 -19.07612038 -6.00000000
v -6.00000000 -19.00000000 -6.00000000
v -5.61731672 -19.07612038 -6.00000000
v -5.29289341 -19.29289246 -6.00000000
v -3.70710683 -20.70710754 -6.00000000
v -3.92387962 -20.38268280 -6.00000000
v -4.00000000 -20.00000000 -6.00000000
v -3.92387962 -19.61731720 -6.00000000
v -3.38268352 -20.92387962 -6.00000000
v -3.00000000 -21.00000000 -6.00000000
v -2.61731648 -20.92387962 -6.00000000
v -3.70710683 -19.29289246 -6.00000000
v -3.38268352 -19.07612038 -6.00000000
v -3.00000000 -19.00000000 -6.00000000
v -2.61731648 -19.07612038 -6.00000000
v -2.29289317 -20.70710754 -6.00000000
v -2.07612038 -20.38268280 -6.00000000
v -2.00000000 -20.00000000 -6.00000000
v -2.07612038 -19.61731720 -6.00000000
v -0.70710677 -20.70710754 -6.00000000
v -0.92387950 -20.38268280 -6.00000000
v -0.38268343 -20.92387962 -6.00000000
v -1.00000000 -20.00000000 -6.00000000
v -0.92387950 -19.61731720 -6.00000000
v -2.29289317 -19.29289246 -6.00000000
v -0.70710677 -19.29289246 -6.00000000
v -0.38268343 -19.07612038 -6.00000000
v -6.70710659 -20.70710754 -4.25000000
v -6.92387962 -20.38268280 -4.25000000
v -6.38268328 -20.92387962 -4.25000000
v -7.00000000 -20.00000000 -4.25000000
v -6.92387962 -19.61731720 -4.25000000
v -6.00000000 -21.00000000 -4.25000000
v -5.61731672 -20.92387962 -4.25000000
v -5.29289341 -20.70710754 -4.25000000
v -5.07612038 -20.38268280 -4.25000000
v -6.00000000 -20.00000000 -4.25000000
v -5.00000000 -20.00000000 -4.25000000
v -5.07612038 -19.61731720 -4.25000000
v -6.70710659 -19.29289246 -4.25000000
v -6.38268328 -19.07612038 -4.25000000
v -6.00000000 -19.00000000 -4.25000000
v -5.61731672 -19.07612038 -4.25000000
v -5.29289341 -19.29289246 -4.25000000
v -3.70710683 -20.70710754 -4.25000000
v -3.92387962 -20.38268280 -4.25000000
v -4.00000000 -20.00000000 -4.25000000
v -3.92387962 -19.61731720 -4.25000000
v -3.38268352 -20.92387962 -4.25000000
v -3.00000000 -21.00000000 -4.25000000
v -2.61731648 -20.92387962 -4.25000000
v -3.00000000 -20.00000000 -4.25000000
v -3.70710683 -19.29289246 -4.25000000
v -3.38268352 -19.07612038 -4.25000000
v -3.00000000 -19.00000000 -4.25000000
v -2.61731648 -19.07612038 -4.25000000
v -2.29289317 -20.70710754 -4.25000000
v -2.07612038 -20.38268280 -4.25000000
v -2.00000000 -20.00000000 -4.25000000
v -2.07612038 -19.61731720 -4.25000000
v -0.70710677 -20.70710754 -4.25000000
v -0.92387950 -20.38268280 -4.25000000
v -0.38268343 -20.92387962 -4.25000000
v -1.00000000 -20.00000000 -4.25000000
v -0.92387950 -19.61731720 -4.25000000
v -2.29289317 -19.29289246 -4.25000000
v -0.70710677 -19.29289246 -4.25000000
v -0.38268343 -19.07612038 -4.25000000
v -6.70710659 -17.70710754 -6.00000000
v -6.92387962 -17.38268280 -6.00000000
v -6.38268328 -17.92387962 -6.00000000
v -7.00000000 -17.00000000 -6.00000000
v -6.92387962 -16.61731720 -6.00000000
v -6.00000000 -18.00000000 -6.00000000
v -5.61731672 -17.92387962 -6.00000000
v -5.29289341 -17.70710754 -6.00000000
v -5.07612038 -17.38268280 -6.00000000
v -5.00000000 -17.00000000 -6.00000000
v -5.07612038 -16.61731720 -6.00000000
v -6.70710659 -16.29289246 -6.00000000
v -6.38268328 -16.07612038 -6.00000000
v -6.00000000 -16.00000000 -6.00000000
v -5.61731672 -16.07612038 -6.00000000
v -5.29289341 -16.29289246 -6.00000000
v -6.70710659 -14.70710659 -6.00000000
v -6.92387962 -14.38268375 -6.00000000
v -6.38268328 -14.92387962 -6.00000000
v -7.00000000 -14.00000000 -6.00000000
v -6.92387962 -13.61731625 -6.00000000
v -6.00000000 -15.00000000 -6.00000000
v -5.61731672 -14.92387962 -6.00000000
v -5.29289341 -14.70710659 -6.00000000
v -5.07612038 -14.38268375 -6.00000000
v -5.00000000 -14.00000000 -6.00000000
v -5.07612038 -13.61731625 -6.00000000
v -6.70710659 -13.29289341 -6.00000000
v -6.38268328 -13.07612038 -6.00000000
v -6.00000000 -13.00000000 -6.00000000
v -5.61731672 -13.07612038 -6.00000000
v -5.29289341 -13.29289341 -6.00000000
v -3.70710683 -17.70710754 -6.00000000
v -3.92387962 -17.38268280 -6.00000000
v -4.00000000 -17.00000000 -6.00000000
v -3.92387962 -16.61731720 -6.00000000
v -3.38268352 -17.92387962 -6.00000000
v -3.00000000 -18.00000000 -6.00000000
v -2.61731648 -17.92387962 -6.00000000
v -3.70710683 -16.29289246 -6.00000000
v -3.38268352 -16.07612038 -6.00000000
v -3.00000000 -16.00000000 -6.00000000
v -2.61731648 -16.07612038 -6.00000000
v -2.29289317 -17.70710754 -6.00000000
v -2.07612038 -17.38268280 -6.00000000
v -2.00000000 -17.00000000 -6.00000000
v -2.07612038 -16.61731720 -6.00000000
v -0.70710677 -17.70710754 -6.00000000
v -0.92387950 -17.38268280 -6.00000000
v -0.38268343 -17.92387962 -6.00000000
v -1.00000000 -17.00000000 -6.00000000
v -0.92387950 -16.61731720 -6.00000000
v -2.29289317 -16.29289246 -6.00000000
v -0.70710677 -16.29289246 -6.00000000
v -0.38268343 -16.07612038 -6.00000000
v -3.70710683 -14.70710659 -6.00000000
v -3.92387962 -14.38268375 -6.00000000
v -4.00000000 -14.00000000 -6.00000000
v -3.92387962 -13.61731625 -6.00000000
v -3.38268352 -14.92387962 -6.00000000
v -3.00000000 -15.00000000 -6.00000000
v -2.61731648 -14.92387962 -6.00000000
v -3.70710683 -13.29289341 -6.00000000
v -3.38268352 -13.07612038 -6.00000000
v -3.00000000 -13.00000000 -6.00000000
v -2.61731648 -13.07612038 -6.00000000
v -2.29289317 -14.70710659 -6.00000000
v -2.07612038 -14.38268375 -6.00000000
v -2.00000000 -14.00000000 -6.00000000
v -2.07612038 -13.61731625 -6.00000000
v -0.70710677 -14.70710659 -6.00000000
v -0.92387950 -14.38268375 -6.00000000
v -0.38268343 -14.92387962 -6.00000000
v -1.00000000 -14.00000000 -6.00000000
v -0.92387950 -13.61731625 -6.00000000
v -2.29289317 -13.29289341 -6.00000000
v -0.70710677 -13.29289341 -6.00000000
v -0.38268343 -13.07612038 -6.00000000
v -6.70710659 -17.70710754 -4.25000000
v -6.92387962 -17.38268280 -4.25000000
v -6.38268328 -17.92387962 -4.25000000
v -7.00000000 -17.00000000 -4.25000000
v -6.92387962 -16.61731720 -4.25000000
v -6.00000000 -18.00000000 -4.25000000
v -5.61731672 -17.92387962 -4.25000000
v -5.29289341 -17.70710754 -4.25000000
v -5.07612038 -17.38268280 -4.25000000
v -6.00000000 -17.00000000 -4.25000000
v -5.00000000 -17.00000000 -4.25000000
v -5.07612038 -16.61731720 -4.25000000
v -6.70710659 -16.29289246 -4.25000000
v -6.38268328 -16.07612038 -4.25000000
v -6.00000000 -16.00000000 -4.25000000
v -5.61731672 -16.07612038 -4.25000000
v -5.29289341 -16.29289246 -4.25000000
v -6.70710659 -14.70710659 -4.25000000
v -6.92387962 -14.38268375 -4.25000000
v -6.38268328 -14.92387962 -4.25000000
v -7.00000000 -14.00000000 -4.25000000
v -6.92387962 -13.61731625 -4.25000000
v -6.00000000 -15.00000000 -4.25000000
v -5.61731672 -14.92387962 -4.25000000
v -5.29289341 -14.70710659 -4.25000000
v -5.07612038 -14.38268375 -4.25000000
v -6.00000000 -14.00000000 -4.25000000
v -5.00000000 -14.00000000 -4.25000000
v -5.07612038 -13.61731625 -4.25000000
v -6.70710659 -13.29289341 -4.25000000
v -6.38268328 -13.07612038 -4.25000000
v -6.00000000 -13.00000000 -4.25000000
v -5.61731672 -13.07612038 -4.25000000
v -5.29289341 -13.29289341 -4.25000000
v -3.70710683 -17.70710754 -4.25000000
v -3.92387962 -17.38268280 -4.25000000
v -4.00000000 -17.00000000 -4.25000000
v -3.92387962 -16.61731720 -4.25000000
v -3.38268352 -17.92387962 -4.25000000
v -3.00000000 -18.00000000 -4.25000000
v -2.61731648 -17.92387962 -4.25000000
v -3.00000000 -17.00000000 -4.25000000
v -3.70710683 -16.29289246 -4.25000000
v -3.38268352 -16.07612038 -4.25000000
v -3.00000000 -16.00000000 -4.25000000
v -2.61731648 -16.07612038 -4.25000000
v -2.29289317 -17.70710754 -4.25000000
v -2.07612038 -17.38268280 -4.25000000
v -2.00000000 -17.00000000 -4.25000000
v -2.07612038 -16.61731720 -4.25000000
v -0.70710677 -17.70710754 -4.25000000
v -0.92387950 -17.38268280 -4.25000000
v -0.38268343 -17.92387962 -4.25000000
v -1.00000000 -17.00000000 -4.25000000
v -0.92387950 -16.61731720 -4.25000000
v -2.29289317 -16.29289246 -4.25000000
v -0.70710677 -16.29289246 -4.25000000
v -0.38268343 -16.07612038 -4.25000000
v -3.70710683 -14.70710659 -4.25000000
v -3.92387962 -14.38268375 -4.25000000
v -4.00000000 -14.00000000 -4.25000000
v -3.92387962 -13.61731625 -4.25000000
v -3.38268352 -14.92387962 -4.25000000
v -3.00000000 -15.00000000 -4.25000000
v -2.61731648 -14.92387962 -4.25000000
v -3.00000000 -14.00000000 -4.25000000
v -3.70710683 -13.29289341 -4.25000000
v -3.38268352 -13.07612038 -4.25000000
v -3.00000000 -13.00000000 -4.25000000
v -2.61731648 -13.07612038 -4.25000000
v -2.29289317 -14.70710659 -4.25000000
v -2.07612038 -14.38268375 -4.25000000
v -2.00000000 -14.00000000 -4.25000000
v -2.07612038 -13.61731625 -4.25000000
v -0.70710677 -14.70710659 -4.25000000
v -0.92387950 -14.38268375 -4.25000000
v -0.38268343 -14.92387962 -4.25000000
v -1.00000000 -14.00000000 -4.25000000
v -0.92387950 -13.61731625 -4.25000000
v -2.29289317 -13.29289341 -4.25000000
v -0.70710677 -13.29289341 -4.25000000
v -0.38268343 -13.07612038 -4.25000000
v -39.00000000 -24.00000000 6.00000000
v -5.16703510 -24.00000000 4.25000000
v -4.98881769 -23.66657829 4.25000000
v -4.24264050 -22.75735855 4.25000000
v -3.33342147 -22.01118279 4.25000000
v -2.29610062 -21.45672226 4.25000000
v -1.17054188 -21.11528778 4.25000000
v -7.40968227 -24.00000000 5.50000000
v -7.39103603 -23.93853188 5.50000000
v -7.40968227 -24.00000000 6.00000000
v -7.39103603 -23.93853188 6.00000000
v -6.65175676 -22.55543900 5.50000000
v -5.16703510 -24.00000000 5.50000000
v -4.98881769 -23.66657829 5.50000000
v -6.65175676 -22.55543900 6.00000000
v -5.65685415 -21.34314537 5.50000000
v -5.65685415 -21.34314537 6.00000000
v -4.24264050 -22.75735855 5.50000000
v -3.33342147 -22.01118279 5.50000000
v -2.29610062 -21.45672226 5.50000000
v -1.17054188 -21.11528778 5.50000000
v -4.44456196 -20.34824371 5.50000000
v -3.06146741 -19.60896301 5.50000000
v -4.44456196 -20.34824371 6.00000000
v -3.06146741 -19.60896301 6.00000000
v -1.56072259 -19.15371704 5.50000000
v -1.56072259 -19.15371704 6.00000000
v -35.41421509 17.58578682 -6.00000000
v -35.66294098 17.88885880 -6.00000000
v -34.76536560 17.15224075 -6.00000000
v -34.39018250 17.03842926 -6.00000000
v -35.11114120 17.33706093 -6.00000000
v -34.00000000 17.00000000 -6.00000000
v -33.60981750 17.03842926 -6.00000000
v -33.23463440 17.15224075 -6.00000000
v -32.88885880 17.33706093 -6.00000000
v -32.58578491 17.58578682 -6.00000000
v -32.33705902 17.88885880 -6.00000000
v -35.96157074 18.60981941 -6.00000000
v -35.84775925 18.23463249 -6.00000000
v -36.00000000 19.00000000 -6.00000000
v -35.96157074 19.39018059 -6.00000000
v -35.84775925 19.76536751 -6.00000000
v -35.66294098 20.11114120 -6.00000000
v -35.41421509 20.41421318 -6.00000000
v -35.11114120 20.66293907 -6.00000000
v -34.76536560 20.84775925 -6.00000000
v -34.39018250 20.96157074 -6.00000000
v -39.00000000 24.00000000 -6.00000000
v -32.15224075 18.23463249 -6.00000000
v -32.03842926 18.60981941 -6.00000000
v -32.00000000 19.00000000 -6.00000000
v -32.03842926 19.39018059 -6.00000000
v -33.60981750 20.96157074 -6.00000000
v -33.23463440 20.84775925 -6.00000000
v -32.33705902 20.11114120 -6.00000000
v -32.15224075 19.76536751 -6.00000000
v -32.58578491 20.41421318 -6.00000000
v -32.88885880 20.66293907 -6.00000000
v -34.00000000 21.00000000 -6.00000000
v -35.41421509 17.58578682 6.00000000
v -35.66294098 17.88885880 6.00000000
v -34.76536560 17.15224075 6.00000000
v -34.39018250 17.03842926 6.00000000
v -35.11114120 17.33706093 6.00000000
v -34.00000000 17.00000000 6.00000000
v -33.60981750 17.03842926 6.00000000
v -33.23463440 17.15224075 6.00000000
v -32.88885880 17.33706093 6.00000000
v -32.58578491 17.58578682 6.00000000
v -32.33705902 17.88885880 6.00000000
v -35.96157074 18.60981941 6.00000000
v -35.84775925 18.23463249 6.00000000
v -36.00000000 19.00000000 6.00000000
v -35.96157074 19.39018059 6.00000000
v -35.84775925 19.76536751 6.00000000
v -35.66294098 20.11114120 6.00000000
v -35.41421509 20.41421318 6.00000000
v -35.11114120 20.66293907 6.00000000
v -34.76536560 20.84775925 6.00000000
v -34.39018250 20.96157074 6.00000000
v -39.00000000 24.00000000 6.00000000
v -32.15224075 18.23463249 6.00000000
v -32.03842926 18.60981941 6.00000000
v -32.00000000 19.00000000 6.00000000
v -32.03842926 19.39018059 6.00000000
v -33.60981750 20.96157074 6.00000000
v -33.23463440 20.84775925 6.00000000
v -32.33705902 20.11114120 6.00000000
v -32.15224075 19.76536751 6.00000000
v -32.58578491 20.41421318 6.00000000
v -32.88885880 20.66293907 6.00000000
v -34.00000000 21.00000000 6.00000000
v -0.00000000 -21.00000000 -6.00000000
v 0.38268343 -20.92387962 -6.00000000
v 0.70710677 -20.70710754 -6.00000000
v 0.92387950 -20.38268280 -6.00000000
v 1.00000000 -20.00000000 -6.00000000
v 0.92387950 -19.61731720 -6.00000000
v 2.29289317 -20.70710754 -6.00000000
v 2.07612038 -20.38268280 -6.00000000
v 2.00000000 -20.00000000 -6.00000000
v 2.07612038 -19.61731720 -6.00000000
v 0.00000000 -19.00000000 -6.00000000
v 0.38268343 -19.07612038 -6.00000000
v 0.70710677 -19.29289246 -6.00000000
v 2.29289317 -19.29289246 -6.00000000
v 2.61731648 -20.92387962 -6.00000000
v 3.00000000 -21.00000000 -6.00000000
v 3.38268352 -20.92387962 -6.00000000
v 3.70710683 -20.70710754 -6.00000000
v 3.92387962 -20.38268280 -6.00000000
v 4.00000000 -20.00000000 -6.00000000
v 3.92387962 -19.61731720 -6.00000000
v 2.61731648 -19.07612038 -6.00000000
v 3.00000000 -19.00000000 -6.00000000
v 3.38268352 -19.07612038 -6.00000000
v 3.70710683 -19.29289246 -6.00000000
v 5.29289341 -20.70710754 -6.00000000
v 5.07612038 -20.38268280 -6.00000000
v 5.61731672 -20.92387962 -6.00000000
v 6.00000000 -21.00000000 -6.00000000
v 5.00000000 -20.00000000 -6.00000000
v 5.07612038 -19.61731720 -6.00000000
v 6.38268328 -20.92387962 -6.00000000
v 6.70710659 -20.70710754 -6.00000000
v 6.92387962 -20.38268280 -6.00000000
v 7.00000000 -20.00000000 -6.00000000
v 6.92387962 -19.61731720 -6.00000000
v 5.29289341 -19.29289246 -6.00000000
v 5.61731672 -19.07612038 -6.00000000
v 6.00000000 -19.00000000 -6.00000000
v 6.38268328 -19.07612038 -6.00000000
v 6.70710659 -19.29289246 -6.00000000
v -0.00000000 -21.00000000 -4.25000000
v 0.38268343 -20.92387962 -4.25000000
v 0.70710677 -20.70710754 -4.25000000
v 0.92387950 -20.38268280 -4.25000000
v 0.00000000 -20.00000000 -4.25000000
v 1.00000000 -20.00000000 -4.25000000
v 0.92387950 -19.61731720 -4.25000000
v 2.29289317 -20.70710754 -4.25000000
v 2.07612038 -20.38268280 -4.25000000
v 2.00000000 -20.00000000 -4.25000000
v 2.07612038 -19.61731720 -4.25000000
v 0.00000000 -19.00000000 -4.25000000
v 0.38268343 -19.07612038 -4.25000000
v 0.70710677 -19.29289246 -4.25000000
v 2.29289317 -19.29289246 -4.25000000
v 2.61731648 -20.92387962 -4.25000000
v 3.00000000 -21.00000000 -4.25000000
v 3.38268352 -20.92387962 -4.25000000
v 3.00000000 -20.00000000 -4.25000000
v 3.70710683 -20.70710754 -4.25000000
v 3.92387962 -20.38268280 -4.25000000
v 4.00000000 -20.00000000 -4.25000000
v 3.92387962 -19.61731720 -4.25000000
v 2.61731648 -19.07612038 -4.25000000
v 3.00000000 -19.00000000 -4.25000000
v 3.38268352 -19.07612038 -4.25000000
v 3.70710683 -19.29289246 -4.25000000
v 5.29289341 -20.70710754 -4.25000000
v 5.07612038 -20.38268280 -4.25000000
v 5.61731672 -20.92387962 -4.25000000
v 6.00000000 -21.00000000 -4.25000000
v 5.00000000 -20.00000000 -4.25000000
v 5.07612038 -19.61731720 -4.25000000
v 6.00000000 -20.00000000 -4.25000000
v 6.38268328 -20.92387962 -4.25000000
v 6.70710659 -20.70710754 -4.25000000
v 6.92387962 -20.38268280 -4.25000000
v 7.00000000 -20.00000000 -4.25000000
v 6.92387962 -19.61731720 -4.25000000
v 5.29289341 -19.29289246 -4.25000000
v 5.61731672 -19.07612038 -4.25000000
v 6.00000000 -19.00000000 -4.25000000
v 6.38268328 -19.07612038 -4.25000000
v 6.70710659 -19.29289246 -4.25000000
v -0.00000000 -18.00000000 -6.00000000
v 0.38268343 -17.92387962 -6.00000000
v 0.70710677 -17.70710754 -6.00000000
v 0.92387950 -17.38268280 -6.00000000
v 1.00000000 -17.00000000 -6.00000000
v 0.92387950 -16.61731720 -6.00000000
v 2.29289317 -17.70710754 -6.00000000
v 2.07612038 -17.38268280 -6.00000000
v 2.00000000 -17.00000000 -6.00000000
v 2.07612038 -16.61731720 -6.00000000
v 0.00000000 -16.00000000 -6.00000000
v 0.38268343 -16.07612038 -6.00000000
v 0.70710677 -16.29289246 -6.00000000
v 2.29289317 -16.29289246 -6.00000000
v 2.61731648 -17.92387962 -6.00000000
v 3.00000000 -18.00000000 -6.00000000
v 3.38268352 -17.92387962 -6.00000000
v 3.70710683 -17.70710754 -6.00000000
v 3.92387962 -17.38268280 -6.00000000
v 4.00000000 -17.00000000 -6.00000000
v 3.92387962 -16.61731720 -6.00000000
v 2.61731648 -16.07612038 -6.00000000
v 3.00000000 -16.00000000 -6.00000000
v 3.38268352 -16.07612038 -6.00000000
v 3.70710683 -16.29289246 -6.00000000
v -0.00000000 -15.00000000 -6.00000000
v 0.38268343 -14.92387962 -6.00000000
v 0.70710677 -14.70710659 -6.00000000
v 0.92387950 -14.38268375 -6.00000000
v 1.00000000 -14.00000000 -6.00000000
v 0.92387950 -13.61731625 -6.00000000
v 2.29289317 -14.70710659 -6.00000000
v 2.07612038 -14.38268375 -6.00000000
v 2.00000000 -14.00000000 -6.00000000
v 2.07612038 -13.61731625 -6.00000000
v 0.00000000 -13.00000000 -6.00000000
v 0.38268343 -13.07612038 -6.00000000
v 0.70710677 -13.29289341 -6.00000000
v 2.29289317 -13.29289341 -6.00000000
v 2.61731648 -14.92387962 -6.00000000
v 3.00000000 -15.00000000 -6.00000000
v 3.38268352 -14.92387962 -6.00000000
v 3.70710683 -14.70710659 -6.00000000
v 3.92387962 -14.38268375 -6.00000000
v 4.00000000 -14.00000000 -6.00000000
v 3.92387962 -13.61731625 -6.00000000
v 2.61731648 -13.07612038 -6.00000000
v 3.00000000 -13.00000000 -6.00000000
v 3.38268352 -13.07612038 -6.00000000
v 3.70710683 -13.29289341 -6.00000000
v 5.29289341 -17.70710754 -6.00000000
v 5.07612038 -17.38268280 -6.00000000
v 5.61731672 -17.92387962 -6.00000000
v 6.00000000 -18.00000000 -6.00000000
v 5.00000000 -17.00000000 -6.00000000
v 5.07612038 -16.61731720 -6.00000000
v 6.38268328 -17.92387962 -6.00000000
v 6.70710659 -17.70710754 -6.00000000
v 6.92387962 -17.38268280 -6.00000000
v 7.00000000 -17.00000000 -6.00000000
v 6.92387962 -16.61731720 -6.00000000
v 5.29289341 -16.29289246 -6.00000000
v 5.61731672 -16.07612038 -6.00000000
v 6.00000000 -16.00000000 -6.00000000
v 6.38268328 -16.07612038 -6.00000000
v 6.70710659 -16.29289246 -6.00000000
v 5.29289341 -14.70710659 -6.00000000
v 5.07612038 -14.38268375 -6.00000000
v 5.61731672 -14.92387962 -6.00000000
v 6.00000000 -15.00000000 -6.00000000
v 5.00000000 -14.00000000 -6.00000000
v 5.07612038 -13.61731625 -6.00000000
v 6.38268328 -14.92387962 -6.00000000
v 6.70710659 -14.70710659 -6.00000000
v 6.92387962 -14.38268375 -6.00000000
v 7.00000000 -14.00000000 -6.00000000
v 6.92387962 -13.61731625 -6.00000000
v 5.29289341 -13.29289341 -6.00000000
v 5.61731672 -13.07612038 -6.00000000
v 6.00000000 -13.00000000 -6.00000000
v 6.38268328 -13.07612038 -6.00000000
v 6.70710659 -13.29289341 -6.00000000
v -0.00000000 -18.00000000 -4.25000000
v 0.38268343 -17.92387962 -4.25000000
v 0.70710677 -17.70710754 -4.25000000
v 0.92387950 -17.38268280 -4.25000000
v 0.00000000 -17.00000000 -4.25000000
v 1.00000000 -17.00000000 -4.25000000
v 0.92387950 -16.61731720 -4.25000000
v 2.29289317 -17.70710754 -4.25000000
v 2.07612038 -17.38268280 -4.25000000
v 2.00000000 -17.00000000 -4.25000000
v 2.07612038 -16.61731720 -4.25000000
v 0.00000000 -16.00000000 -4.25000000
v 0.38268343 -16.07612038 -4.25000000
v 0.70710677 -16.29289246 -4.25000000
v 2.29289317 -16.29289246 -4.25000000
v 2.61731648 -17.92387962 -4.25000000
v 3.00000000 -18.00000000 -4.25000000
v 3.38268352 -17.92387962 -4.25000000
v 3.00000000 -17.00000000 -4.25000000
v 3.70710683 -17.70710754 -4.25000000
v 3.92387962 -17.38268280 -4.25000000
v 4.00000000 -17.00000000 -4.25000000
v 3.92387962 -16.61731720 -4.25000000
v 2.61731648 -16.07612038 -4.25000000
v 3.00000000 -16.00000000 -4.25000000
v 3.38268352 -16.07612038 -4.25000000
v 3.70710683 -16.29289246 -4.25000000
v -0.00000000 -15.00000000 -4.25000000
v 0.38268343 -14.92387962 -4.25000000
v 0.70710677 -14.70710659 -4.25000000
v 0.92387950 -14.38268375 -4.25000000
v 0.00000000 -14.00000000 -4.25000000
v 1.00000000 -14.00000000 -4.25000000
v 0.92387950 -13.61731625 -4.25000000
v 2.29289317 -14.70710659 -4.25000000
v 2.07612038 -14.38268375 -4.25000000
v 2.00000000 -14.00000000 -4.25000000
v 2.07612038 -13.61731625 -4.25000000
v 0.00000000 -13.00000000 -4.25000000
v 0.38268343 -13.07612038 -4.25000000
v 0.70710677 -13.29289341 -4.25000000
v 2.29289317 -13.29289341 -4.25000000
v 2.61731648 -14.92387962 -4.25000000
v 3.00000000 -15.00000000 -4.25000000
v 3.38268352 -14.92387962 -4.25000000
v 3.00000000 -14.00000000 -4.25000000
v 3.70710683 -14.70710659 -4.25000000
v 3.92387962 -14.38268375 -4.25000000
v 4.00000000 -14.00000000 -4.25000000
v 3.92387962 -13.61731625 -4.25000000
v 2.61731648 -13.07612038 -4.25000000
v 3.00000000 -13.00000000 -4.25000000
v 3.38268352 -13.07612038 -4.25000000
v 3.70710683 -13.29289341 -4.25000000
v 5.29289341 -17.70710754 -4.25000000
v 5.07612038 -17.38268280 -4.25000000
v 5.61731672 -17.92387962 -4.25000000
v 6.00000000 -18.00000000 -4.25000000
v 5.00000000 -17.00000000 -4.25000000
v 5.07612038 -16.61731720 -4.25000000
v 6.00000000 -17.00000000 -4.25000000
v 6.38268328 -17.92387962 -4.25000000
v 6.70710659 -17.70710754 -4.25000000
v 6.92387962 -17.38268280 -4.25000000
v 7.00000000 -17.00000000 -4.25000000
v 6.92387962 -16.61731720 -4.25000000
v 5.29289341 -16.29289246 -4.25000000
v 5.61731672 -16.07612038 -4.25000000
v 6.00000000 -16.00000000 -4.25000000
v 6.38268328 -16.07612038 -4.25000000
v 6.70710659 -16.29289246 -4.25000000
v 5.29289341 -14.70710659 -4.25000000
v 5.07612038 -14.38268375 -4.25000000
v 5.61731672 -14.92387962 -4.25000000
v 6.00000000 -15.00000000 -4.25000000
v 5.00000000 -14.00000000 -4.25000000
v 5.07612038 -13.61731625 -4.25000000
v 6.00000000 -14.00000000 -4.25000000
v 6.38268328 -14.92387962 -4.25000000
v 6.70710659 -14.70710659 -4.25000000
v 6.92387962 -14.38268375 -4.25000000
v 7.00000000 -14.00000000 -4.25000000
v 6.92387962 -13.61731625 -4.25000000
v 5.29289341 -13.29289341 -4.25000000
v 5.61731672 -13.07612038 -4.25000000
v 6.00000000 -13.00000000 -4.25000000
v 6.38268328 -13.07612038 -4.25000000
v 6.70710659 -13.29289341 -4.25000000
v 39.00000000 -24.00000000 -6.00000000
v 37.25000000 -5.00000000 -2.00000000
v 39.00000000 -5.00000000 -2.00000000
v 1.17054188 -21.11528778 4.25000000
v 2.29610062 -21.45672226 4.25000000
v 4.24264050 -22.75735855 4.25000000
v 3.33342147 -22.01118279 4.25000000
v 0.00000000 -21.00000000 4.25000000
v 5.16703510 -24.00000000 4.25000000
v 4.98881769 -23.66657829 4.25000000
v 1.17054188 -21.11528778 5.50000000
v 2.29610062 -21.45672226 5.50000000
v 4.24264050 -22.75735855 5.50000000
v 3.33342147 -22.01118279 5.50000000
v 0.00000000 -21.00000000 5.50000000
v 0.00000000 -19.00000000 5.50000000
v 1.56072259 -19.15371704 5.50000000
v 0.00000000 -19.00000000 6.00000000
v 1.56072259 -19.15371704 6.00000000
v 3.06146741 -19.60896301 5.50000000
v 4.44456196 -20.34824371 5.50000000
v 3.06146741 -19.60896301 6.00000000
v 4.44456196 -20.34824371 6.00000000
v 5.16703510 -24.00000000 5.50000000
v 4.98881769 -23.66657829 5.50000000
v 6.65175676 -22.55543900 5.50000000
v 6.65175676 -22.55543900 6.00000000
v 5.65685415 -21.34314537 5.50000000
v 5.65685415 -21.34314537 6.00000000
v 7.40968227 -24.00000000 5.50000000
v 7.39103603 -23.93853188 5.50000000
v 7.40968227 -24.00000000 6.00000000
v 7.39103603 -23.93853188 6.00000000
v 39.00000000 -24.00000000 6.00000000
v 37.25000000 -5.00000000 2.00000000
v 39.00000000 -5.00000000 2.00000000
v 37.25000000 5.00000000 -2.00000000
v 39.00000000 5.00000000 -2.00000000
v 39.00000000 24.00000000 -6.00000000
v 37.25000000 5.00000000 2.00000000
v 39.00000000 5.00000000 2.00000000
v 39.00000000 24.00000000 6.00000000
f 1 279 5
f 1 4 7
f 1 2 4
f 1 3 2
f 1 5 3
f 2 3 42
f 2 41 4
f 4 43 7
f 3 5 44
f 5 6 45
f 7 46 8
f 8 47 9
f 9 48 10
f 10 49 11
f 11 51 12
f 12 52 17
f 15 82 84
f 15 84 87
f 15 25 16
f 15 87 88
f 15 88 89
f 15 89 25
f 6 13 53
f 13 14 54
f 14 15 55
f 15 16 56
f 16 17 57
f 2 42 41
f 3 44 42
f 4 41 43
f 7 43 46
f 5 45 44
f 6 53 45
f 8 46 47
f 9 47 48
f 10 48 49
f 11 49 51
f 12 51 52
f 13 54 53
f 14 55 54
f 16 57 56
f 15 56 55
f 17 52 57
f 1 7 590
f 8 9 22
f 9 10 18
f 10 11 19
f 8 22 23
f 9 18 22
f 10 19 18
f 11 20 19
f 11 12 20
f 12 17 21
f 12 21 20
f 18 19 59
f 19 20 60
f 20 21 61
f 18 58 22
f 22 62 23
f 23 63 24
f 24 64 29
f 16 25 17
f 17 25 21
f 25 89 26
f 26 89 27
f 27 89 40
f 21 25 66
f 25 26 67
f 26 27 68
f 27 28 69
f 24 29 35
f 29 30 33
f 30 31 34
f 30 34 33
f 31 36 34
f 31 32 36
f 32 38 37
f 32 37 36
f 24 35 335
f 29 33 35
f 29 70 30
f 30 71 31
f 32 73 38
f 31 72 32
f 33 34 75
f 33 74 35
f 35 76 335
f 34 36 77
f 36 37 78
f 28 37 38
f 27 39 28
f 28 39 37
f 27 40 39
f 40 89 345
f 89 346 345
f 89 356 346
f 89 119 371
f 119 120 371
f 28 38 79
f 37 39 80
f 39 40 81
f 40 345 387
f 18 59 58
f 19 60 59
f 20 61 60
f 21 66 61
f 22 58 62
f 23 62 63
f 24 63 64
f 25 67 66
f 26 68 67
f 28 79 69
f 27 69 68
f 29 64 70
f 30 70 71
f 31 71 72
f 32 72 73
f 34 77 75
f 33 75 74
f 35 74 76
f 76 376 335
f 36 78 77
f 37 80 78
f 38 73 79
f 39 81 80
f 40 387 81
f 43 50 46
f 41 42 50
f 41 50 43
f 42 44 50
f 44 45 50
f 45 53 50
f 46 50 47
f 47 50 48
f 48 50 49
f 49 50 51
f 50 52 51
f 50 57 52
f 50 53 54
f 50 54 55
f 50 55 56
f 50 56 57
f 62 65 63
f 58 65 62
f 58 59 65
f 63 65 64
f 64 65 70
f 65 71 70
f 59 60 65
f 60 61 65
f 61 66 65
f 65 79 73
f 65 66 67
f 65 67 68
f 65 68 69
f 65 69 79
f 65 72 71
f 65 73 72
f 76 380 376
f 74 380 76
f 74 75 380
f 75 77 380
f 77 78 380
f 78 80 380
f 80 81 380
f 81 387 380
f 82 83 161
f 82 160 84
f 84 162 87
f 83 85 163
f 85 86 164
f 87 165 88
f 88 166 89
f 89 167 90
f 90 168 91
f 91 170 92
f 92 171 97
f 95 98 100
f 95 100 103
f 96 117 97
f 95 121 96
f 95 103 104
f 95 104 105
f 95 105 121
f 86 93 172
f 93 94 173
f 94 95 174
f 95 96 175
f 96 97 176
f 82 161 160
f 83 163 161
f 84 160 162
f 87 162 165
f 85 164 163
f 86 172 164
f 88 165 166
f 89 166 167
f 90 167 168
f 91 168 170
f 92 170 171
f 93 173 172
f 94 174 173
f 96 176 175
f 95 175 174
f 97 171 176
f 98 99 178
f 98 177 100
f 100 179 103
f 99 101 180
f 101 102 181
f 103 182 104
f 104 183 105
f 105 184 106
f 106 185 107
f 107 187 108
f 108 188 113
f 112 140 113
f 102 109 189
f 109 110 190
f 110 111 191
f 111 112 192
f 112 113 193
f 98 178 177
f 99 180 178
f 100 177 179
f 103 179 182
f 101 181 180
f 102 189 181
f 104 182 183
f 105 183 184
f 106 184 185
f 107 185 187
f 108 187 188
f 109 190 189
f 110 191 190
f 112 193 192
f 111 192 191
f 113 188 193
f 89 90 114
f 90 91 115
f 89 114 118
f 89 118 119
f 90 115 114
f 91 116 115
f 91 92 116
f 92 97 117
f 92 117 116
f 114 115 195
f 115 116 196
f 116 117 197
f 114 194 118
f 118 198 119
f 119 199 120
f 120 200 125
f 96 121 117
f 105 122 121
f 105 123 122
f 105 136 123
f 117 121 202
f 121 122 203
f 122 123 204
f 123 124 205
f 125 126 129
f 126 127 130
f 126 130 129
f 127 132 130
f 127 128 132
f 128 134 133
f 128 133 132
f 125 129 131
f 125 131 420
f 125 206 126
f 126 207 127
f 128 209 134
f 127 208 128
f 129 130 211
f 129 210 131
f 131 212 420
f 130 132 213
f 132 133 214
f 124 133 134
f 123 135 124
f 124 135 133
f 123 136 135
f 105 430 136
f 105 141 433
f 105 431 430
f 141 142 433
f 142 143 433
f 105 433 431
f 143 148 441
f 124 134 215
f 133 135 216
f 135 136 217
f 136 430 513
f 114 195 194
f 115 196 195
f 116 197 196
f 117 202 197
f 118 194 198
f 119 198 199
f 120 199 200
f 121 203 202
f 122 204 203
f 124 215 205
f 123 205 204
f 125 200 206
f 126 206 207
f 127 207 208
f 128 208 209
f 130 213 211
f 129 211 210
f 131 210 212
f 212 502 420
f 132 214 213
f 133 216 214
f 134 209 215
f 135 217 216
f 136 513 217
f 105 106 137
f 106 107 138
f 105 137 141
f 106 138 137
f 107 139 138
f 107 108 139
f 108 113 139
f 113 140 139
f 137 138 219
f 138 139 220
f 139 140 221
f 137 218 141
f 141 222 142
f 142 223 143
f 143 224 148
f 112 144 140
f 140 144 226
f 144 145 227
f 145 146 228
f 146 147 229
f 148 149 152
f 149 150 153
f 149 153 152
f 150 155 153
f 150 151 155
f 151 157 155
f 155 157 156
f 148 152 154
f 148 230 149
f 149 231 150
f 151 233 157
f 150 232 151
f 152 153 235
f 152 234 154
f 154 236 445
f 153 155 237
f 155 156 238
f 156 157 158
f 147 157 239
f 156 158 240
f 158 159 241
f 159 455 540
f 137 219 218
f 138 220 219
f 139 221 220
f 140 226 221
f 141 218 222
f 142 222 223
f 143 223 224
f 144 227 226
f 145 228 227
f 147 239 229
f 146 229 228
f 148 224 230
f 149 230 231
f 150 231 232
f 151 232 233
f 153 237 235
f 152 235 234
f 154 234 236
f 236 529 445
f 155 238 237
f 156 240 238
f 157 233 239
f 158 241 240
f 159 540 241
f 162 169 165
f 160 161 169
f 160 169 162
f 161 163 169
f 163 164 169
f 164 172 169
f 165 169 166
f 166 169 167
f 167 169 168
f 168 169 170
f 169 171 170
f 169 176 171
f 169 172 173
f 169 173 174
f 169 174 175
f 169 175 176
f 179 186 182
f 177 178 186
f 177 186 179
f 178 180 186
f 180 181 186
f 181 189 186
f 182 186 183
f 183 186 184
f 184 186 185
f 185 186 187
f 186 188 187
f 186 193 188
f 186 189 190
f 186 190 191
f 186 191 192
f 186 192 193
f 198 201 199
f 194 201 198
f 194 195 201
f 199 201 200
f 200 201 206
f 201 207 206
f 195 196 201
f 196 197 201
f 197 202 201
f 201 215 209
f 201 202 203
f 201 203 204
f 201 204 205
f 201 205 215
f 201 208 207
f 201 209 208
f 212 506 502
f 210 506 212
f 210 211 506
f 211 213 506
f 213 214 506
f 214 216 506
f 216 217 506
f 217 513 506
f 222 225 223
f 218 225 222
f 218 219 225
f 223 225 224
f 224 225 230
f 225 231 230
f 219 220 225
f 220 221 225
f 221 226 225
f 225 239 233
f 225 226 227
f 225 227 228
f 225 228 229
f 225 229 239
f 225 232 231
f 225 233 232
f 236 533 529
f 234 533 236
f 234 235 533
f 235 237 533
f 237 238 533
f 238 240 533
f 240 241 533
f 241 540 533
f 1 590 242
f 5 279 6
f 6 279 13
f 13 279 14
f 14 279 15
f 15 279 82
f 82 279 83
f 83 279 85
f 85 279 86
f 86 279 93
f 93 279 94
f 94 279 95
f 95 279 98
f 98 279 99
f 99 279 101
f 101 279 102
f 102 279 109
f 109 279 110
f 110 279 111
f 111 279 112
f 112 279 144
f 144 279 145
f 145 279 146
f 146 279 147
f 147 279 157
f 157 279 158
f 158 279 159
f 159 279 455
f 279 457 456
f 279 456 455
f 279 458 457
f 279 466 458
f 279 467 466
f 279 468 467
f 279 469 468
f 279 497 469
f 279 498 497
f 279 499 498
f 279 501 500
f 279 500 499
f 1 242 323
f 242 590 243
f 242 243 249
f 242 249 251
f 242 251 252
f 242 252 256
f 242 256 258
f 243 245 244
f 243 246 245
f 243 247 246
f 243 248 247
f 243 597 248
f 243 593 597
f 243 594 593
f 243 244 254
f 243 254 249
f 244 255 254
f 249 250 251
f 250 252 251
f 249 253 250
f 249 254 253
f 253 254 255
f 253 255 257
f 255 259 257
f 250 256 252
f 250 253 256
f 253 258 256
f 253 257 258
f 257 265 258
f 244 245 255
f 245 246 259
f 245 259 255
f 246 247 260
f 246 260 259
f 247 261 260
f 247 248 261
f 248 597 262
f 248 262 261
f 262 597 604
f 257 259 263
f 259 260 263
f 260 261 264
f 260 264 263
f 257 263 265
f 263 266 265
f 263 264 266
f 264 268 266
f 261 262 267
f 261 267 264
f 262 604 605
f 262 605 267
f 264 267 268
f 267 605 607
f 267 607 268
f 242 258 631
f 1 270 269
f 1 290 270
f 1 273 271
f 1 269 273
f 1 271 272
f 1 272 274
f 1 274 275
f 1 275 276
f 1 276 277
f 1 277 278
f 1 278 279
f 1 323 290
f 270 290 281
f 280 281 290
f 280 290 282
f 282 290 283
f 283 290 284
f 284 290 285
f 285 290 286
f 286 290 287
f 287 290 288
f 288 290 289
f 289 290 301
f 290 295 301
f 290 296 295
f 290 300 296
f 269 270 303
f 271 304 272
f 272 305 274
f 269 302 273
f 271 273 306
f 274 307 275
f 275 308 276
f 276 309 277
f 277 310 278
f 278 311 279
f 270 281 314
f 280 313 281
f 280 282 315
f 282 283 316
f 283 284 317
f 284 285 318
f 285 286 319
f 286 287 320
f 287 288 321
f 288 289 322
f 289 301 334
f 279 312 291
f 291 324 292
f 292 325 293
f 293 326 294
f 295 328 301
f 295 296 329
f 296 300 333
f 297 330 299
f 294 327 298
f 297 298 331
f 299 332 300
f 279 291 590
f 291 292 590
f 292 293 590
f 293 294 590
f 294 298 590
f 297 590 298
f 290 628 300
f 297 299 628
f 299 300 628
f 242 302 303
f 242 303 323
f 242 304 306
f 242 306 302
f 242 305 304
f 242 307 305
f 242 308 307
f 242 309 308
f 242 310 309
f 242 311 310
f 242 312 311
f 242 324 312
f 242 325 324
f 269 303 302
f 271 306 304
f 272 304 305
f 274 305 307
f 273 302 306
f 275 307 308
f 276 308 309
f 277 309 310
f 278 310 311
f 279 311 312
f 280 315 313
f 270 314 303
f 281 313 314
f 282 316 315
f 283 317 316
f 284 318 317
f 285 319 318
f 286 320 319
f 287 321 320
f 288 322 321
f 289 334 322
f 291 312 324
f 292 324 325
f 293 325 326
f 294 326 327
f 301 328 334
f 295 329 328
f 296 333 329
f 298 327 331
f 297 331 330
f 300 332 333
f 299 330 332
f 303 314 323
f 313 323 314
f 313 315 323
f 315 316 323
f 316 317 323
f 317 318 323
f 318 319 323
f 319 320 323
f 320 321 323
f 321 322 323
f 322 334 323
f 323 334 328
f 323 328 329
f 323 329 333
f 242 631 325
f 290 323 631
f 323 333 631
f 325 631 326
f 326 631 327
f 330 631 332
f 332 631 333
f 327 631 331
f 330 331 631
f 336 337 349
f 337 338 341
f 338 339 342
f 338 342 341
f 336 349 350
f 337 341 349
f 339 343 342
f 339 340 343
f 340 347 344
f 340 344 343
f 335 376 336
f 336 377 337
f 337 378 338
f 338 379 339
f 340 382 347
f 339 381 340
f 341 383 349
f 341 342 384
f 342 343 385
f 343 344 386
f 344 347 346
f 89 357 356
f 120 125 371
f 89 371 357
f 344 346 348
f 346 356 348
f 346 347 389
f 345 346 388
f 344 348 390
f 351 352 362
f 352 360 362
f 352 353 360
f 353 354 361
f 353 361 360
f 355 359 365
f 354 364 361
f 354 355 364
f 355 365 364
f 349 391 350
f 350 392 351
f 351 393 352
f 352 395 353
f 353 396 354
f 355 398 359
f 354 397 355
f 125 372 371
f 125 373 372
f 358 371 359
f 357 371 358
f 359 371 365
f 348 356 399
f 356 357 400
f 358 359 402
f 357 358 401
f 336 376 377
f 337 377 378
f 338 378 379
f 339 379 381
f 340 381 382
f 342 385 384
f 341 384 383
f 343 386 385
f 344 390 386
f 346 389 388
f 345 388 387
f 347 382 389
f 348 399 390
f 349 383 391
f 350 391 392
f 351 392 393
f 352 393 395
f 353 395 396
f 354 396 397
f 355 397 398
f 356 400 399
f 358 402 401
f 357 401 400
f 359 398 402
f 7 8 590
f 351 362 363
f 360 403 362
f 360 361 404
f 362 405 363
f 361 364 407
f 364 365 408
f 363 406 366
f 366 410 367
f 367 411 368
f 368 412 369
f 369 413 370
f 370 414 375
f 365 371 415
f 371 372 416
f 372 373 417
f 374 375 419
f 373 374 418
f 361 407 404
f 360 404 403
f 362 403 405
f 363 405 406
f 364 408 407
f 365 415 408
f 366 406 410
f 367 410 411
f 368 411 412
f 369 412 413
f 370 413 414
f 371 416 415
f 372 417 416
f 374 419 418
f 373 418 417
f 375 414 419
f 376 380 377
f 377 380 378
f 378 380 379
f 380 389 382
f 379 380 381
f 380 382 381
f 384 385 394
f 385 386 394
f 380 387 388
f 380 388 389
f 391 394 392
f 383 394 391
f 383 384 394
f 392 394 393
f 393 394 395
f 394 396 395
f 386 390 394
f 394 397 396
f 394 398 397
f 394 402 398
f 390 399 394
f 394 399 400
f 394 400 401
f 394 401 402
f 403 404 409
f 405 409 406
f 403 409 405
f 404 407 409
f 407 408 409
f 408 415 409
f 406 409 410
f 409 411 410
f 409 412 411
f 409 413 412
f 409 414 413
f 409 419 414
f 409 415 416
f 409 416 417
f 409 417 418
f 409 418 419
f 422 423 426
f 423 424 427
f 423 427 426
f 422 434 435
f 422 426 434
f 424 428 427
f 424 425 428
f 425 432 429
f 425 429 428
f 420 502 421
f 421 503 422
f 422 504 423
f 423 505 424
f 425 508 432
f 424 507 425
f 426 509 434
f 426 427 510
f 427 428 511
f 428 429 512
f 429 433 512
f 431 433 432
f 143 441 433
f 148 442 441
f 148 154 481
f 429 432 433
f 148 443 442
f 154 445 481
f 148 481 443
f 445 446 481
f 446 447 481
f 431 432 515
f 430 431 514
f 437 470 472
f 437 438 470
f 438 439 471
f 438 471 470
f 440 444 475
f 439 474 471
f 439 440 474
f 440 475 474
f 434 517 435
f 435 518 436
f 436 519 437
f 437 521 438
f 438 522 439
f 440 524 444
f 439 523 440
f 447 459 483
f 443 481 444
f 444 481 475
f 447 482 481
f 447 483 482
f 433 441 525
f 441 442 526
f 443 444 528
f 442 443 527
f 421 502 503
f 422 503 504
f 423 504 505
f 424 505 507
f 425 507 508
f 427 511 510
f 426 510 509
f 428 512 511
f 431 515 514
f 430 514 513
f 432 508 515
f 433 516 512
f 433 525 516
f 434 509 517
f 435 517 518
f 436 518 519
f 437 519 521
f 438 521 522
f 439 522 523
f 440 523 524
f 441 526 525
f 443 528 527
f 442 527 526
f 444 524 528
f 450 457 453
f 447 448 459
f 448 449 452
f 448 452 451
f 448 451 459
f 449 453 452
f 449 450 453
f 453 457 454
f 445 529 446
f 446 530 447
f 447 531 448
f 448 532 449
f 450 535 457
f 449 534 450
f 451 536 459
f 451 452 537
f 452 453 538
f 453 454 539
f 454 457 458
f 456 457 542
f 455 456 541
f 454 458 543
f 462 463 488
f 463 464 487
f 463 487 486
f 465 469 490
f 464 490 487
f 464 465 490
f 469 491 490
f 459 544 460
f 460 545 461
f 461 546 462
f 462 548 463
f 463 549 464
f 465 551 469
f 464 550 465
f 469 497 491
f 458 466 552
f 466 467 553
f 468 469 555
f 467 468 554
f 446 529 530
f 447 530 531
f 448 531 532
f 449 532 534
f 450 534 535
f 452 538 537
f 451 537 536
f 453 539 538
f 454 543 539
f 456 542 541
f 455 541 540
f 457 535 542
f 458 552 543
f 459 536 544
f 460 544 545
f 461 545 546
f 462 546 548
f 463 548 549
f 464 549 550
f 465 550 551
f 466 553 552
f 468 555 554
f 467 554 553
f 469 551 555
f 437 472 473
f 470 556 472
f 470 471 557
f 472 558 473
f 471 474 560
f 474 475 561
f 475 481 561
f 473 559 476
f 476 563 477
f 477 564 478
f 478 565 479
f 479 566 480
f 480 567 485
f 459 484 483
f 481 482 569
f 482 483 570
f 484 485 572
f 483 484 571
f 471 560 557
f 470 557 556
f 472 556 558
f 473 558 559
f 474 561 560
f 476 559 563
f 477 563 564
f 478 564 565
f 479 565 566
f 480 566 567
f 481 568 561
f 481 569 568
f 482 570 569
f 484 572 571
f 483 571 570
f 485 567 572
f 463 486 488
f 486 573 488
f 486 487 574
f 488 575 489
f 487 490 577
f 490 491 578
f 489 576 492
f 492 580 493
f 493 581 494
f 494 582 495
f 495 583 496
f 496 584 501
f 491 497 585
f 497 498 586
f 498 499 587
f 500 501 589
f 499 500 588
f 487 577 574
f 486 574 573
f 488 573 575
f 489 575 576
f 490 578 577
f 491 585 578
f 492 576 580
f 493 580 581
f 494 581 582
f 495 582 583
f 496 583 584
f 497 586 585
f 498 587 586
f 500 589 588
f 499 588 587
f 501 584 589
f 502 506 503
f 503 506 504
f 504 506 505
f 506 515 508
f 505 506 507
f 506 508 507
f 510 511 520
f 511 512 520
f 506 513 514
f 506 514 515
f 517 520 518
f 509 520 517
f 509 510 520
f 518 520 519
f 519 520 521
f 520 522 521
f 512 516 520
f 520 523 522
f 520 524 523
f 520 528 524
f 516 525 520
f 520 525 526
f 520 526 527
f 520 527 528
f 529 533 530
f 530 533 531
f 531 533 532
f 533 542 535
f 532 533 534
f 533 535 534
f 537 538 547
f 538 539 547
f 533 540 541
f 533 541 542
f 544 547 545
f 536 547 544
f 536 537 547
f 545 547 546
f 546 547 548
f 547 549 548
f 539 543 547
f 547 550 549
f 547 551 550
f 547 555 551
f 543 552 547
f 547 552 553
f 547 553 554
f 547 554 555
f 556 557 562
f 558 562 559
f 556 562 558
f 557 560 562
f 560 561 562
f 561 568 562
f 559 562 563
f 562 564 563
f 562 565 564
f 562 566 565
f 562 567 566
f 562 572 567
f 562 568 569
f 562 569 570
f 562 570 571
f 562 571 572
f 573 574 579
f 575 579 576
f 573 579 575
f 574 577 579
f 577 578 579
f 578 585 579
f 576 579 580
f 579 581 580
f 579 582 581
f 579 583 582
f 579 584 583
f 579 589 584
f 579 585 586
f 579 586 587
f 579 587 588
f 579 588 589
f 8 23 590
f 23 24 590
f 24 335 590
f 335 336 590
f 336 350 590
f 125 420 590
f 420 421 590
f 421 422 590
f 125 590 373
f 422 435 590
f 350 351 590
f 351 363 590
f 363 366 590
f 366 367 590
f 367 368 590
f 368 369 590
f 369 370 590
f 435 436 590
f 436 437 590
f 437 473 590
f 459 590 484
f 373 590 374
f 374 590 375
f 370 375 590
f 473 476 590
f 476 477 590
f 477 478 590
f 478 479 590
f 479 480 590
f 484 590 485
f 480 485 590
f 459 460 590
f 460 461 590
f 461 462 590
f 462 488 590
f 488 489 590
f 489 492 590
f 492 493 590
f 493 494 590
f 494 495 590
f 495 496 590
f 496 501 590
f 279 590 501
f 590 627 592
f 590 592 625
f 591 592 626
f 591 625 592
f 243 590 598
f 243 595 596
f 243 598 599
f 243 599 595
f 243 596 594
f 593 604 597
f 593 594 600
f 593 600 604
f 594 601 600
f 595 599 602
f 599 614 602
f 595 602 603
f 595 603 596
f 594 596 601
f 596 603 601
f 601 603 610
f 602 617 603
f 603 617 610
f 600 606 604
f 604 606 605
f 600 601 609
f 600 609 606
f 605 606 608
f 605 608 607
f 606 611 608
f 601 610 609
f 609 612 611
f 610 618 612
f 609 610 612
f 606 609 611
f 598 614 599
f 598 613 614
f 598 619 613
f 613 615 614
f 602 614 615
f 613 619 620
f 613 620 615
f 615 620 622
f 615 622 616
f 602 615 617
f 610 617 618
f 616 618 617
f 615 616 617
f 619 622 620
f 619 621 622
f 598 623 619
f 619 623 621
f 258 265 631
f 621 631 622
f 616 622 631
f 616 631 618
f 265 266 631
f 266 268 631
f 268 607 631
f 607 608 631
f 608 611 631
f 611 612 631
f 612 618 631
f 590 623 598
f 590 625 623
f 591 624 625
f 591 629 624
f 624 630 625
f 621 623 631
f 623 625 631
f 297 628 590
f 290 631 628
f 590 628 627
f 592 627 626
f 591 626 629
f 626 627 629
f 627 628 631
f 627 630 629
f 624 629 630
f 627 631 630
f 625 630 631

